<?xml version="1.0" standalone="no"?>
<!DOCTYPE svg PUBLIC "-//W3C//DTD SVG 20010904//EN"
 "http://www.w3.org/TR/2001/REC-SVG-20010904/DTD/svg10.dtd">
<svg version="1.0" xmlns="http://www.w3.org/2000/svg"
 width="665.000000pt" height="570.000000pt" viewBox="0 0 665.000000 570.000000"
 preserveAspectRatio="xMidYMid meet">

<g transform="translate(0.000000,570.000000) scale(0.100000,-0.100000)"
fill="#000000" stroke="none">
<path d="M2607 5679 c-161 -38 -302 -184 -336 -347 -7 -34 -11 -217 -11 -522
l0 -469 -727 -3 -728 -3 -51 -27 c-57 -30 -118 -93 -142 -147 -16 -33 -17
-168 -22 -1516 l-5 -1480 -273 -5 c-256 -5 -275 -6 -288 -24 -24 -34 -16 -69
39 -161 68 -116 152 -200 255 -253 149 -78 -115 -72 3012 -72 3109 0 2851 -6
2999 66 101 50 201 147 269 260 54 91 62 125 36 159 -14 19 -30 20 -287 25
l-272 5 -5 1480 -5 1480 -23 42 c-31 59 -86 111 -146 139 -45 21 -66 24 -168
24 l-118 0 0 380 0 380 342 2 343 3 20 40 c16 32 20 60 20 140 0 92 -3 106
-32 167 -44 94 -109 160 -202 206 l-75 37 -1690 2 c-976 0 -1707 -3 -1729 -8z
m249 -113 c77 -35 145 -103 181 -180 25 -55 28 -72 28 -168 0 -61 4 -111 10
-117 8 -8 396 -12 1225 -13 l1215 -3 3 -1760 c2 -968 0 -1847 -3 -1952 l-7
-193 -1579 0 -1579 0 2 311 3 311 60 25 c110 45 109 36 21 227 -42 92 -76 169
-76 171 0 2 21 7 46 11 35 5 48 12 57 31 10 22 5 29 -51 86 l-62 63 2 1459 3
1460 22 47 c25 54 92 131 144 164 96 60 228 69 335 20z m3209 5 c137 -64 214
-208 185 -346 l-11 -55 -1540 0 -1539 0 0 63 c-1 122 -42 225 -125 314 l-51
53 1511 0 1510 0 60 -29z m-3805 -1496 l0 -175 -510 0 c-563 0 -551 1 -618
-63 -19 -18 -43 -50 -55 -72 l-22 -40 0 -1015 0 -1015 21 -40 c29 -54 70 -94
119 -116 37 -17 77 -19 553 -19 l512 0 0 -175 0 -175 -795 0 -795 0 2 1468 3
1468 27 42 c16 23 39 49 53 58 66 43 68 43 803 44 l702 0 0 -175z m3576 160
c64 -19 120 -75 140 -140 12 -41 14 -259 14 -1487 l0 -1438 -190 0 -190 0 0
1540 0 1540 88 0 c49 0 111 -7 138 -15z m-3576 -555 l0 -140 -560 0 -560 0 0
80 c0 50 5 91 14 108 19 37 58 71 92 82 16 4 251 9 522 9 l492 1 0 -140z m0
-701 l0 -481 -59 51 c-32 28 -64 58 -71 66 -33 40 -90 76 -110 70 -19 -6 -20
-14 -20 -304 0 -218 3 -300 12 -309 20 -20 46 -14 86 22 l38 35 62 -142 62
-142 0 -123 0 -123 -509 3 c-499 3 -510 3 -538 24 -15 11 -38 36 -50 54 l-23
33 0 873 0 874 560 0 560 0 0 -481z m-38 -536 c157 -144 161 -150 85 -152 -15
-1 -30 -7 -33 -14 -3 -8 31 -93 75 -191 l79 -177 -29 -14 c-80 -42 -68 -53
-156 142 -43 96 -84 178 -90 180 -7 3 -31 -9 -53 -27 l-40 -32 0 211 c0 116 3
211 6 211 3 0 73 -62 156 -137z m4324 -1379 c-15 -39 -114 -169 -155 -205 -61
-51 -155 -97 -238 -114 -101 -22 -5554 -22 -5654 -1 -157 34 -274 126 -378
299 l-23 37 3227 0 c2948 0 3227 -1 3221 -16z"/>
<path d="M3090 4784 c-220 -58 -399 -243 -445 -460 -45 -212 14 -414 165 -564
125 -125 261 -182 434 -181 196 1 369 85 482 234 88 116 125 228 125 377 0
176 -51 300 -176 426 -87 89 -174 140 -282 168 -76 20 -229 20 -303 0z m284
-59 c245 -64 416 -284 416 -534 0 -189 -84 -350 -236 -454 -94 -64 -168 -89
-280 -95 -110 -5 -179 8 -274 54 -86 41 -199 149 -243 231 -35 66 -67 191 -67
263 0 72 32 197 67 263 38 71 155 186 229 225 114 59 268 78 388 47z"/>
<path d="M3135 4585 c-22 -8 -41 -15 -42 -15 -11 -1 -29 -59 -36 -120 -13
-113 -11 -149 10 -173 40 -48 63 -87 63 -112 0 -22 -4 -25 -35 -25 -44 0 -94
-20 -119 -49 -29 -32 -67 -152 -54 -168 8 -10 79 -13 312 -13 165 0 307 4 315
9 17 11 10 62 -18 125 -23 54 -66 83 -133 92 -61 8 -62 25 -6 105 29 42 41 70
41 92 -2 64 -20 204 -27 216 -29 46 -186 66 -271 36z m195 -59 c23 -11 25 -16
22 -73 -2 -36 1 -64 7 -68 16 -9 13 -51 -4 -65 -8 -7 -15 -19 -15 -27 0 -8
-15 -30 -34 -49 -62 -62 -132 -40 -179 54 -19 37 -22 53 -14 72 5 14 9 50 8
81 -2 62 8 76 62 90 38 9 112 2 147 -15z m-22 -407 c6 -41 21 -51 64 -44 50 9
95 -9 113 -46 8 -15 15 -33 15 -39 0 -7 -84 -10 -255 -10 -140 0 -255 3 -255
6 0 3 7 21 16 39 19 40 61 59 114 52 41 -5 77 14 64 34 -12 20 16 34 68 33 48
0 53 -3 56 -25z"/>
<path d="M4056 4497 c-11 -8 -17 -23 -14 -38 l3 -24 440 0 440 0 3 24 c7 50 0
51 -443 51 -323 0 -415 -3 -429 -13z"/>
<path d="M4044 4286 c-3 -8 -4 -23 -2 -33 3 -17 31 -18 552 -18 501 0 550 1
559 17 8 12 7 21 -2 32 -12 14 -73 16 -558 16 -464 0 -544 -2 -549 -14z"/>
<path d="M4047 4093 c-14 -13 -6 -53 12 -63 13 -6 223 -10 613 -10 639 0 634
0 626 51 l-3 24 -621 3 c-341 1 -624 -1 -627 -5z"/>
<path d="M2638 3169 c-21 -12 -23 -40 -6 -57 9 -9 153 -12 585 -12 556 0 573
1 583 19 13 25 13 27 -6 45 -14 14 -80 16 -577 16 -363 -1 -568 -4 -579 -11z"/>
<path d="M4050 3166 c-6 -8 -10 -25 -8 -38 l3 -23 574 -3 c415 -1 578 1 587 9
18 15 18 34 -2 53 -14 14 -80 16 -578 16 -479 0 -565 -2 -576 -14z"/>
<path d="M2632 2938 c-16 -16 -15 -43 2 -57 10 -8 238 -10 841 -9 776 3 829 4
839 21 8 12 8 22 0 35 -10 16 -63 17 -841 20 -636 2 -832 -1 -841 -10z"/>
<path d="M4534 2926 c-3 -8 -4 -23 -2 -33 3 -17 24 -18 334 -21 356 -2 365 -1
349 48 -6 20 -13 20 -341 20 -282 0 -335 -2 -340 -14z"/>
<path d="M2632 2708 c-7 -7 -12 -19 -12 -28 0 -9 5 -21 12 -28 9 -9 309 -12
1290 -12 1253 0 1277 0 1288 19 13 25 13 27 -6 45 -14 14 -144 16 -1288 16
-976 0 -1275 -3 -1284 -12z"/>
<path d="M2632 2488 c-16 -16 -15 -43 2 -57 9 -8 80 -11 236 -9 200 3 224 5
234 21 8 12 8 22 0 35 -10 15 -34 17 -235 20 -166 2 -228 -1 -237 -10z"/>
<path d="M3334 2476 c-3 -8 -4 -23 -2 -33 3 -17 44 -18 937 -18 861 0 935 1
944 17 8 12 7 21 -2 32 -12 14 -107 16 -943 16 -799 0 -929 -2 -934 -14z"/>
<path d="M2632 2258 c-16 -16 -15 -33 4 -52 13 -14 59 -16 344 -16 325 0 329
0 344 22 11 15 12 26 5 40 -9 17 -29 18 -347 18 -250 0 -341 -3 -350 -12z"/>
<path d="M3582 2258 c-16 -16 -15 -33 4 -52 13 -14 58 -16 340 -16 205 0 332
4 345 10 21 12 25 40 7 58 -17 17 -679 17 -696 0z"/>
<path d="M4490 2256 c-6 -8 -10 -25 -8 -38 l3 -23 354 -3 c253 -2 358 1 367 9
20 16 17 47 -5 59 -13 6 -144 10 -359 10 -284 0 -342 -2 -352 -14z"/>
<path d="M2623 2024 c-3 -9 -2 -24 4 -33 9 -14 48 -16 344 -16 l334 0 0 30 0
30 -338 3 c-306 2 -338 1 -344 -14z"/>
<path d="M3532 2028 c-16 -16 -15 -43 2 -57 10 -8 238 -10 841 -9 776 3 829 4
839 20 8 13 8 23 0 35 -10 17 -63 18 -841 21 -636 2 -832 -1 -841 -10z"/>
<path d="M2624 1784 c-4 -15 -2 -30 5 -37 9 -9 324 -13 1280 -15 1245 -2 1269
-2 1292 17 20 16 22 23 13 38 -11 17 -68 18 -1297 21 l-1287 2 -6 -26z"/>
<path d="M2632 1578 c-7 -7 -12 -19 -12 -28 0 -40 -12 -40 971 -40 521 0 954
3 963 6 21 8 21 60 0 68 -9 3 -442 6 -963 6 -723 0 -950 -3 -959 -12z"/>
<path d="M4772 1578 c-7 -7 -12 -19 -12 -28 0 -37 19 -40 226 -40 171 0 205 2
218 16 19 18 19 20 6 45 -10 18 -23 19 -218 19 -149 0 -211 -3 -220 -12z"/>
<path d="M3090 965 l0 -45 240 0 240 0 0 45 0 45 -240 0 -240 0 0 -45z"/>
<path d="M1442 5428 c-22 -22 -13 -44 44 -106 60 -67 94 -79 114 -41 13 23 10
28 -69 112 -46 48 -68 56 -89 35z"/>
<path d="M1824 5378 c-65 -63 -78 -94 -49 -118 22 -18 48 -4 109 60 62 65 70
96 28 111 -21 8 -33 1 -88 -53z"/>
<path d="M1489 5043 c-72 -69 -83 -95 -49 -113 27 -14 43 -4 113 69 49 51 56
64 48 80 -21 39 -41 33 -112 -36z"/>
<path d="M1766 5094 c-26 -25 -19 -42 40 -104 61 -64 87 -78 109 -60 29 24 16
55 -49 118 -35 34 -69 62 -74 62 -6 0 -18 -7 -26 -16z"/>
<path d="M77 4828 c-16 -12 -17 -39 -15 -307 3 -267 5 -295 21 -305 12 -8 22
-8 35 0 15 10 17 38 20 302 2 254 0 292 -14 306 -19 19 -25 20 -47 4z"/>
<path d="M6265 4675 c-74 -26 -135 -114 -135 -195 0 -110 99 -209 208 -210
187 -1 281 224 148 356 -61 61 -138 78 -221 49z m136 -80 c39 -21 69 -71 69
-116 0 -42 -34 -98 -70 -116 -58 -29 -136 -7 -170 50 -26 42 -25 80 2 128 35
63 107 86 169 54z"/>
<path d="M67 4023 c-13 -12 -8 -238 5 -251 18 -18 46 -14 58 7 14 28 13 224
-2 239 -13 13 -50 16 -61 5z"/>
<path d="M532 348 c-16 -16 -15 -43 2 -57 9 -8 100 -11 311 -9 271 3 299 5
309 21 8 12 8 22 0 35 -10 15 -38 17 -310 20 -225 2 -303 -1 -312 -10z"/>
<path d="M1336 345 c-9 -9 -16 -22 -16 -29 0 -30 28 -37 135 -34 90 3 110 6
119 21 8 12 8 22 0 35 -16 25 -214 31 -238 7z"/>
<path d="M1072 79 c-18 -7 -23 -15 -20 -36 l3 -28 435 0 435 0 3 27 c3 22 -2
30 -23 38 -34 13 -801 12 -833 -1z"/>
<path d="M532 68 c-7 -7 -12 -19 -12 -28 0 -35 21 -40 171 -40 121 0 150 3
163 16 19 18 19 20 6 45 -10 17 -23 19 -163 19 -106 0 -157 -4 -165 -12z"/>
</g>
</svg>
